<?xml version="1.0" standalone="no"?>
<!DOCTYPE svg PUBLIC "-//W3C//DTD SVG 20010904//EN"
 "http://www.w3.org/TR/2001/REC-SVG-20010904/DTD/svg10.dtd">
<svg version="1.0" xmlns="http://www.w3.org/2000/svg"
 width="1592.000000pt" height="1592.000000pt" viewBox="0 0 1592.000000 1592.000000"
 preserveAspectRatio="xMidYMid meet">

<g transform="translate(0.000000,1592.000000) scale(0.100000,-0.100000)"
fill="#000000" stroke="none">
<path d="M11727 9514 c-204 -30 -432 -102 -622 -196 -150 -75 -204 -110 -395
-254 -299 -225 -411 -362 -516 -635 -20 -51 -57 -120 -90 -166 -31 -43 -74
-114 -95 -157 -34 -69 -39 -89 -39 -147 0 -67 -1 -69 -55 -141 -66 -86 -188
-327 -210 -413 -44 -170 -58 -454 -32 -630 12 -78 11 -83 -17 -170 -27 -81
-30 -103 -31 -220 0 -115 3 -136 23 -180 44 -95 119 -149 207 -148 49 0 51 -1
86 -51 l37 -52 -64 -33 c-69 -36 -151 -117 -185 -183 -13 -25 -24 -36 -32 -32
-90 53 -250 177 -317 245 -93 94 -172 141 -269 159 -94 17 -238 -7 -569 -96
-286 -77 -401 -118 -1132 -402 -236 -92 -337 -123 -429 -132 -50 -5 -115 -14
-145 -21 -47 -10 -60 -9 -95 5 -62 24 -148 21 -228 -10 -69 -26 -157 -34 -221
-20 -39 9 -108 -9 -147 -39 l-31 -23 -89 24 c-99 26 -132 29 -186 14 -46 -13
-106 -71 -131 -127 -21 -48 -13 -44 -177 -72 -99 -16 -118 -22 -135 -44 -30
-37 -150 -57 -367 -61 -191 -4 -235 -13 -385 -81 -152 -69 -248 -151 -478
-404 -71 -79 -161 -241 -191 -345 -14 -48 -14 -58 -1 -97 14 -39 14 -49 -1
-98 -10 -37 -13 -71 -9 -110 4 -31 6 -69 5 -86 -7 -106 5 -139 69 -180 17 -11
36 -32 43 -48 11 -26 45 -59 85 -83 18 -11 11 -28 -103 -255 -67 -134 -132
-273 -144 -309 -26 -82 -35 -160 -20 -188 17 -32 -19 -109 -56 -118 -46 -11
-116 -50 -145 -81 -36 -37 -72 -151 -93 -293 -10 -63 -27 -144 -39 -179 l-21
-65 -70 -27 c-38 -16 -80 -40 -93 -55 l-23 -26 -72 72 c-84 85 -133 120 -225
162 -45 21 -85 50 -124 90 -91 94 -206 135 -348 125 -41 -3 -99 -15 -128 -26
l-54 -21 -64 19 c-166 52 -315 48 -426 -11 -159 -85 -318 -351 -320 -537 -1
-162 74 -257 287 -360 120 -59 173 -74 358 -107 283 -49 453 -87 521 -115 123
-52 268 -82 323 -67 24 7 38 19 51 46 13 28 24 38 45 40 21 3 27 -1 27 -16 0
-11 19 -36 41 -57 165 -149 612 -183 927 -71 36 13 56 14 124 5 139 -19 284
-7 428 37 161 48 218 48 655 6 522 -50 632 -55 966 -43 162 6 368 11 459 11
196 1 353 14 427 35 44 13 61 14 90 4 42 -13 123 1 185 32 21 11 57 19 82 19
72 0 246 38 390 84 l134 43 7 -41 c3 -23 6 -48 5 -56 0 -8 -3 -43 -6 -78 l-6
-63 49 -49 c26 -27 60 -68 75 -92 15 -25 49 -57 81 -78 42 -27 57 -44 66 -72
13 -42 48 -72 136 -116 149 -74 224 -91 530 -117 191 -17 264 -10 426 41 111
35 169 65 258 133 40 31 79 60 85 65 7 5 36 3 68 -3 42 -9 59 -17 63 -32 9
-27 29 -34 171 -59 l122 -22 16 -42 c30 -79 119 -145 194 -146 18 0 71 10 119
22 66 16 89 19 102 10 63 -45 89 -52 204 -52 100 0 121 -3 178 -27 77 -32 195
-38 243 -12 26 14 33 14 91 -2 100 -28 307 -43 395 -30 167 26 327 149 402
308 54 113 54 181 2 508 -13 88 -34 234 -45 325 -80 671 -104 827 -175 1130
-79 335 -105 403 -259 673 -74 131 -135 241 -135 246 0 6 10 13 23 17 12 3 50
26 83 50 131 93 187 212 165 350 -5 33 -6 62 -2 66 4 5 87 37 184 72 214 78
374 153 522 246 231 145 317 238 433 467 l77 153 49 0 c53 0 154 24 198 46 23
12 28 12 35 0 15 -28 67 -46 131 -46 109 0 185 48 262 166 47 72 103 219 116
304 4 31 20 62 49 100 120 156 212 327 269 502 53 163 68 345 45 543 -11 89
-10 95 10 124 37 52 51 108 51 208 0 52 -5 126 -11 164 -9 59 -8 86 7 162 37
196 21 405 -46 600 -34 102 -161 393 -203 467 -237 421 -598 742 -1032 917
-211 85 -490 159 -708 188 -146 19 -425 18 -560 -1z m993 -1838 c36 -9 97 -20
136 -24 71 -7 71 -7 118 -62 210 -244 393 -655 478 -1069 l22 -106 -67 -245
c-37 -135 -76 -288 -88 -340 -17 -74 -40 -129 -104 -255 -46 -88 -150 -291
-232 -452 -190 -371 -224 -415 -413 -543 -185 -124 -340 -200 -580 -285 -74
-26 -140 -50 -147 -52 -9 -3 -10 5 -6 30 l5 35 -64 -62 c-75 -73 -147 -104
-268 -113 -66 -5 -86 -2 -165 25 -50 17 -117 35 -150 41 -93 17 -198 74 -270
146 -51 53 -65 74 -83 132 -12 38 -22 76 -22 86 0 26 -15 20 -26 -10 -9 -27
-10 -26 -100 78 -175 201 -262 326 -358 513 -91 177 -109 245 -110 411 -1 209
23 880 35 955 5 36 21 99 34 140 13 41 38 141 54 221 16 80 46 197 67 259 32
98 44 120 93 176 l55 63 21 -58 c29 -79 94 -193 108 -188 8 2 12 29 13 73 0
90 19 145 66 199 65 74 134 104 333 146 85 18 154 22 450 29 370 8 489 19 675
66 89 23 212 74 254 106 17 13 27 12 95 -17 42 -17 105 -39 141 -49z m-2639
-1541 c15 -8 35 -15 44 -15 12 0 15 -13 15 -62 0 -93 -10 -102 -61 -53 -23 22
-54 59 -69 83 -27 42 -28 44 -12 83 l15 40 20 -31 c11 -17 32 -37 48 -45z
m3381 -197 c-8 -8 -9 -4 -5 13 4 13 8 18 11 10 2 -7 -1 -18 -6 -23z m-4966
-390 c1 -244 6 -379 17 -468 8 -69 14 -125 14 -126 -1 -1 -105 -44 -232 -97
-299 -124 -393 -154 -730 -238 -307 -77 -366 -84 -665 -84 -137 0 -162 3 -219
24 l-64 23 -46 -23 c-44 -23 -56 -24 -241 -24 -185 -1 -199 -2 -275 -28 -97
-33 -135 -34 -186 -5 -36 20 -69 68 -69 102 0 8 -9 24 -21 34 -29 28 -48 148
-50 317 -1 140 -1 140 -16 95 -10 -29 -16 -85 -17 -160 -1 -106 1 -120 27
-174 15 -32 25 -61 23 -63 -2 -2 -53 -1 -114 3 -105 6 -110 8 -125 34 -29 48
-47 141 -47 240 0 87 13 170 26 170 40 0 263 46 275 56 9 8 21 32 28 54 15 51
54 97 89 104 16 4 74 -6 141 -24 62 -16 118 -27 125 -23 6 4 27 20 48 36 36
29 36 29 135 22 92 -7 103 -5 192 24 103 34 144 38 181 16 58 -33 65 -34 136
-14 38 11 123 24 188 29 75 6 125 15 135 24 9 8 57 28 108 45 50 17 248 92
440 167 327 128 739 274 773 274 14 0 16 -42 16 -342z m1612 306 l23 -7 -7
-136 c-5 -75 -8 -148 -9 -162 0 -20 -4 -25 -18 -21 -17 4 -16 0 6 -44 13 -27
28 -69 32 -93 4 -24 19 -76 32 -115 61 -172 15 -451 -106 -641 -17 -27 -56
-78 -87 -113 -55 -62 -57 -63 -71 -42 -15 21 -13 24 31 64 51 47 57 75 26 106
-26 26 -65 25 -98 -1 l-27 -21 -3 97 c-3 105 11 176 50 260 l23 50 3 -55 c2
-30 -2 -93 -8 -139 -11 -86 -6 -109 23 -98 23 9 41 163 34 283 -10 150 -51
258 -153 397 -51 69 -61 106 -41 150 8 18 22 50 31 71 23 56 90 139 135 169
60 40 126 55 179 41z m3200 -589 c-3 -38 -5 -41 -58 -61 -30 -12 -72 -24 -93
-27 l-38 -6 37 68 36 67 59 0 60 -1 -3 -40z m-2953 -365 c52 -83 137 -194 245
-320 58 -69 122 -147 140 -175 19 -27 54 -71 78 -97 44 -47 44 -48 19 -48 -61
0 -186 -37 -276 -81 l-96 -47 -36 18 c-99 51 -247 198 -297 295 -37 73 -61
145 -50 151 20 13 87 126 117 199 28 65 43 116 66 219 l6 30 28 -50 c15 -27
40 -69 56 -94z m-5165 115 c8 -10 22 -10 73 1 99 21 92 30 93 -106 0 -90 -3
-120 -12 -120 -24 0 -25 -40 -3 -222 26 -221 22 -291 -23 -392 -70 -160 -108
-304 -108 -411 0 -66 -8 -79 -45 -65 -32 13 -66 55 -76 97 -5 22 -5 70 1 118
5 44 11 110 14 147 5 65 4 68 -24 92 -41 34 -106 42 -168 22 -28 -10 -114 -61
-191 -114 -78 -53 -167 -113 -198 -132 -31 -19 -112 -90 -179 -157 -67 -68
-130 -123 -140 -123 -25 0 -54 29 -54 55 0 70 154 242 368 412 88 70 132 111
130 122 -7 39 -45 20 -187 -93 -152 -121 -291 -263 -331 -340 -14 -25 -29 -46
-34 -46 -17 0 -56 43 -56 62 0 32 25 81 103 199 92 139 122 168 273 273 113
77 138 106 116 128 -13 13 -25 6 -164 -91 -142 -100 -174 -130 -250 -244 -80
-121 -82 -123 -75 -60 8 74 106 262 167 322 25 26 98 95 163 154 71 66 117
116 117 128 0 41 -43 18 -153 -83 -176 -162 -220 -209 -255 -276 -19 -35 -36
-61 -39 -58 -9 8 34 122 78 207 28 53 73 113 153 200 190 209 240 251 379 319
67 33 152 67 187 75 84 18 335 19 350 0z m3500 -121 c0 -9 9 -95 20 -192 11
-98 25 -220 31 -272 34 -310 91 -579 184 -877 l47 -149 -92 -170 c-51 -93
-101 -178 -112 -190 -10 -11 -18 -25 -18 -32 0 -6 -6 -9 -14 -6 -13 5 -135
-50 -146 -66 -3 -4 -75 -24 -160 -44 -372 -88 -626 -166 -936 -286 -221 -86
-353 -130 -388 -130 -12 0 -59 -16 -103 -35 -45 -19 -95 -38 -112 -41 -30 -6
-30 -6 -55 77 -121 391 -209 981 -163 1092 22 51 39 59 142 66 76 5 98 10 117
27 84 78 312 134 703 174 219 22 215 20 237 92 6 20 22 48 35 60 22 20 35 23
108 23 46 0 85 2 88 5 2 3 30 52 62 110 72 129 211 359 278 460 72 108 231
320 240 320 4 0 7 -7 7 -16z m-304 -211 c-91 -135 -239 -375 -307 -500 l-34
-63 -55 0 c-95 -1 -164 -44 -201 -126 l-18 -41 -143 -12 c-351 -30 -587 -85
-719 -166 -48 -29 -66 -35 -116 -35 -32 -1 -76 -7 -98 -15 l-40 -15 -295 198
c-283 189 -445 284 -780 453 l-145 74 -11 88 c-5 49 -7 90 -3 93 4 2 17 -8 29
-23 18 -23 32 -28 88 -35 37 -4 90 -7 118 -7 45 -1 53 -4 58 -23 9 -39 66 -98
120 -125 70 -36 136 -35 246 2 82 28 91 29 262 27 151 -2 184 0 230 16 48 17
57 17 93 5 105 -37 505 -33 686 7 405 90 670 170 939 284 96 41 178 75 182 75
4 1 -35 -61 -86 -136z m1553 -57 c9 -11 10 -20 2 -35 -13 -23 -214 -181 -366
-288 -204 -143 -515 -323 -503 -292 3 8 0 26 -7 39 -13 24 -11 25 78 73 180
96 410 252 650 438 103 80 125 90 146 65z m1076 -471 c40 -20 111 -44 157 -54
45 -10 119 -31 163 -46 72 -25 90 -27 180 -22 70 3 116 11 153 26 79 32 82 31
82 -39 0 -33 -7 -77 -16 -98 -30 -72 -124 -149 -222 -183 -31 -10 -67 -24 -79
-30 -32 -17 -74 3 -157 78 -130 116 -278 175 -471 187 -111 7 -170 -3 -170
-29 0 -19 7 -20 129 -22 71 -1 133 -6 138 -11 7 -7 -11 -17 -49 -28 -70 -22
-265 -26 -330 -6 l-43 13 25 49 c14 27 25 58 25 69 0 27 -48 63 -74 56 -32 -9
-4 9 76 50 97 50 195 74 311 74 93 1 103 -1 172 -34z m-1975 -120 c0 -16 -49
-45 -75 -45 -28 0 -16 25 23 46 39 22 52 22 52 -1z m1358 -24 c-18 -31 -25
-37 -36 -28 -11 9 -8 16 20 39 18 15 34 28 36 28 1 0 -8 -18 -20 -39z m92 -1
c12 -23 8 -32 -87 -193 -87 -146 -223 -324 -330 -433 -96 -98 -236 -214 -258
-214 -14 0 -45 26 -45 38 0 14 16 29 80 77 179 137 375 373 520 625 65 115 69
120 90 120 11 0 24 -9 30 -20z m-67 -629 c-19 -17 -22 -22 -8 -17 41 17 62 18
68 2 4 -9 -1 -20 -11 -26 -14 -9 -13 -10 6 -5 24 7 56 -11 46 -26 -3 -5 2 -9
10 -9 24 0 31 -22 11 -37 -17 -12 -16 -13 11 -13 39 0 115 -73 96 -92 -9 -9
-16 -8 -29 5 -21 19 -47 8 -38 -15 9 -23 -13 -33 -33 -15 -12 11 -22 13 -34 6
-29 -16 1 -56 80 -105 122 -77 117 -75 -238 87 -224 103 -280 141 -280 192 0
47 62 85 152 93 61 5 62 5 31 -10 -17 -8 -39 -26 -48 -40 -26 -39 -3 -72 90
-134 113 -75 114 -75 108 -53 -3 12 4 24 18 35 27 19 20 21 -15 5 -20 -9 -29
-9 -42 2 -14 12 -14 14 3 27 16 12 16 13 -8 7 -34 -8 -59 18 -32 34 15 10 14
10 -8 5 -41 -9 -48 24 -12 54 l28 23 -39 -16 c-35 -15 -40 -15 -54 -1 -9 9
-14 17 -11 19 2 2 42 19 89 39 79 33 86 34 103 19 18 -15 18 -17 -10 -40z
m-4923 -287 c559 -417 818 -590 951 -633 32 -10 38 -18 48 -56 6 -24 11 -50
11 -59 0 -16 3 -15 -360 -41 -477 -34 -626 -54 -938 -122 l-164 -35 -61 31
c-86 43 -113 46 -176 22 -50 -19 -57 -19 -128 -5 -41 8 -77 14 -79 14 -2 0 -4
10 -4 23 0 12 -11 64 -25 115 -14 51 -25 97 -25 102 0 4 14 13 30 20 47 19
126 114 219 262 47 73 116 168 155 211 89 99 173 211 222 297 l39 68 35 -27
c19 -14 132 -98 250 -187z m4250 65 c0 -3 -11 -11 -25 -17 -34 -16 -45 6 -15
30 18 15 25 16 31 6 5 -7 9 -16 9 -19z m-325 -93 c516 -229 945 -378 1209
-419 l78 -12 -133 -80 c-242 -144 -466 -246 -959 -435 -146 -55 -305 -117
-355 -136 l-90 -35 -63 67 c-52 54 -71 67 -103 71 -34 5 -42 2 -73 -29 -51
-51 -68 -133 -41 -200 6 -14 -24 -32 -172 -103 -364 -177 -617 -281 -833 -344
-137 -39 -275 -63 -322 -55 -28 4 -44 1 -65 -14 -16 -11 -52 -27 -80 -35 l-53
-16 -34 42 c-113 140 -255 438 -389 817 -77 218 -73 197 -34 204 18 3 64 21
102 39 39 19 93 36 120 40 63 8 137 32 345 114 310 122 583 207 929 288 178
41 196 44 212 29 16 -14 22 -12 78 26 33 23 63 45 66 50 3 5 28 16 55 25 28 9
50 22 50 28 0 12 303 164 330 166 8 1 110 -41 225 -93z m-575 -56 c0 -10 -7
-21 -16 -24 -23 -9 -24 -8 -24 14 0 19 -10 25 -35 21 -5 -1 1 7 15 18 23 18
26 18 42 4 10 -9 18 -24 18 -33z m-60 -8 c0 -8 -43 -32 -58 -32 -6 0 49 40 56
40 1 0 2 -4 2 -8z m-54 -52 c10 0 0 -13 -26 -32 -24 -17 -46 -26 -47 -21 -2 6
-10 19 -17 29 -13 17 -11 21 22 39 35 20 37 20 44 3 4 -10 15 -18 24 -18z
m2199 -590 c37 -421 56 -611 71 -713 8 -60 14 -111 11 -113 -2 -2 -60 -5 -128
-5 -112 -1 -133 2 -219 29 -133 42 -142 43 -199 31 -66 -14 -136 -62 -166
-114 -29 -49 -49 -55 -176 -55 -68 0 -78 -3 -99 -25 -22 -23 -30 -25 -115 -25
l-91 0 -100 146 c-122 180 -172 227 -321 300 -62 30 -113 58 -113 62 0 4 134
58 298 121 665 256 896 366 1202 571 l115 77 7 -51 c3 -28 14 -134 23 -236z
m989 115 c32 -168 57 -340 101 -715 20 -168 47 -372 60 -455 58 -365 59 -413
5 -514 -40 -74 -127 -158 -204 -196 -98 -48 -301 -48 -481 0 -89 24 -89 24
-121 5 -45 -28 -117 -26 -200 7 -60 23 -84 27 -184 28 -117 0 -140 6 -174 44
-24 27 -32 26 -160 -4 -96 -24 -108 -25 -140 -11 -39 16 -59 43 -77 104 -7 23
-18 47 -24 52 -7 6 -73 22 -146 36 -74 14 -135 27 -137 29 -2 1 -8 34 -13 71
-14 97 3 233 39 304 l27 55 113 3 c61 1 112 1 112 -1 0 -3 -12 -31 -27 -63
-23 -49 -28 -76 -30 -159 -2 -60 2 -122 10 -155 l13 -55 7 140 c9 183 28 280
62 311 14 12 25 34 25 47 0 52 72 107 139 107 16 0 72 -14 123 -32 91 -31 97
-32 268 -33 168 0 177 -1 232 -27 l58 -27 47 21 c92 41 243 24 373 -42 73 -37
109 -74 116 -121 9 -52 36 -76 72 -63 22 8 28 16 30 48 10 123 -114 233 -324
286 -92 24 -179 25 -258 5 -48 -13 -65 -13 -92 -3 -19 7 -34 16 -34 20 0 4 -7
48 -15 97 -14 79 -67 573 -62 577 1 1 54 23 117 48 154 63 403 188 575 290 77
45 143 80 147 77 3 -3 18 -64 32 -136z m-2864 -521 c67 -68 182 -145 315 -212
55 -28 119 -66 141 -86 23 -19 94 -112 158 -205 76 -111 124 -171 138 -175 13
-3 49 -6 81 -6 31 0 57 -3 57 -7 -1 -5 -7 -35 -15 -68 -8 -33 -15 -103 -15
-155 0 -69 -3 -90 -11 -78 -5 10 -19 22 -29 28 -17 9 -30 2 -88 -53 -142 -134
-219 -177 -392 -225 -77 -21 -116 -26 -205 -25 -152 1 -418 31 -489 54 -71 24
-232 104 -242 120 -5 9 -2 10 12 5 127 -50 155 -54 379 -57 l220 -4 3 22 c4
30 -2 31 -258 41 l-215 8 -108 46 c-113 49 -167 80 -185 108 -8 14 6 12 85
-12 156 -46 203 -50 365 -33 202 21 208 23 208 45 0 10 -5 22 -11 26 -6 4 -89
-2 -185 -12 l-173 -18 -108 27 c-244 60 -313 96 -298 156 4 14 8 28 11 30 2 2
37 -6 77 -18 109 -32 273 -44 468 -33 92 5 172 13 178 16 6 4 11 16 11 26 0
18 -13 18 -267 17 -247 0 -274 1 -347 21 -101 28 -126 44 -126 82 0 49 24 63
89 53 142 -21 537 -1 731 38 108 22 178 77 187 148 l6 40 -121 118 c-97 96
-122 125 -127 155 -9 47 10 108 34 108 4 0 31 -25 61 -56z m-28 -256 c108 -95
110 -143 5 -172 -28 -8 -122 -22 -207 -31 -85 -9 -175 -21 -200 -26 -26 -6
-91 -7 -157 -3 l-113 7 128 57 c70 32 201 94 292 138 91 45 171 81 178 81 8 1
41 -23 74 -51z"/>
<path d="M10903 7206 c-86 -21 -180 -74 -240 -133 -30 -30 -52 -57 -50 -59 2
-3 46 10 98 27 62 21 121 33 174 36 75 4 87 2 188 -36 165 -63 287 -92 407
-97 176 -8 236 20 247 118 8 68 0 71 -200 73 -162 1 -181 3 -317 37 -178 44
-239 51 -307 34z"/>
<path d="M12443 7040 c-61 -4 -125 -13 -142 -20 -28 -11 -31 -17 -31 -56 0
-31 7 -51 24 -71 l24 -28 324 -5 c354 -6 360 -7 431 -70 43 -37 130 -163 148
-215 18 -48 29 -44 29 11 0 102 -62 260 -129 329 -64 68 -186 109 -356 120
-160 11 -212 12 -322 5z"/>
<path d="M11097 6890 c61 -15 149 -44 194 -64 46 -19 85 -34 87 -31 9 8 -93
65 -152 84 -58 20 -178 41 -221 40 -11 0 30 -13 92 -29z"/>
<path d="M10603 6766 c-38 -43 -37 -51 33 -159 56 -85 140 -169 219 -216 165
-100 397 -115 623 -42 l87 27 -2 40 c-5 71 -34 144 -68 170 -101 76 -534 197
-755 211 l-106 6 -31 -37z m217 -64 l65 -17 6 -46 c17 -116 104 -189 224 -189
73 0 120 21 172 76 l42 46 53 -18 c69 -23 108 -61 108 -107 0 -31 -4 -37 -37
-50 -110 -43 -315 -55 -431 -24 -172 46 -295 151 -346 294 -11 31 -12 43 -3
47 24 9 83 4 147 -12z"/>
<path d="M12450 6510 c-11 -7 -1 -10 36 -10 72 0 206 -25 292 -54 40 -14 70
-21 67 -17 -7 12 -151 69 -205 80 -58 13 -170 14 -190 1z"/>
<path d="M12088 6409 c-58 -73 -76 -129 -88 -274 -6 -77 -18 -137 -40 -199
-34 -100 -34 -105 -19 -159 12 -43 24 -41 34 6 4 17 22 79 40 137 22 71 35
135 40 200 8 117 19 164 62 259 51 113 43 122 -29 30z"/>
<path d="M12215 6380 c-12 -4 -47 -36 -78 -70 l-58 -62 44 -52 c145 -169 388
-296 566 -296 67 0 165 20 242 49 73 28 183 95 187 114 2 9 -2 34 -8 56 -10
37 -16 43 -83 75 -246 116 -718 225 -812 186z m128 -76 c32 -6 37 -10 37 -34
0 -71 46 -145 118 -187 39 -23 58 -28 113 -27 92 0 144 32 204 122 6 9 169
-53 192 -72 l27 -23 -29 -27 c-17 -14 -62 -42 -102 -62 -64 -32 -83 -37 -165
-41 -65 -4 -114 0 -160 11 -71 16 -188 70 -248 114 -60 44 -160 146 -160 163
0 10 14 29 31 43 32 27 67 32 142 20z"/>
<path d="M11461 6233 c-32 -33 -64 -70 -71 -82 -11 -21 -10 -22 10 -11 58 31
143 131 126 148 -4 3 -33 -21 -65 -55z"/>
<path d="M12071 6097 c-1 -43 6 -72 25 -113 14 -31 28 -53 30 -51 7 7 -23 151
-39 187 l-15 35 -1 -58z"/>
<path d="M11278 5736 c-56 -50 -73 -122 -44 -191 10 -23 24 -37 42 -41 27 -7
195 -109 224 -137 39 -37 59 -39 219 -32 86 5 172 7 191 6 43 -3 95 43 110 97
14 50 13 60 -10 110 -26 58 -41 46 -34 -27 7 -60 -11 -116 -41 -127 -8 -3 -38
7 -67 24 -71 40 -98 45 -149 26 -73 -25 -166 0 -230 62 -39 39 -103 59 -150
49 -15 -4 -38 -1 -50 5 -18 10 -21 18 -17 59 3 29 15 63 31 86 15 22 27 43 27
47 0 15 -25 7 -52 -16z"/>
<path d="M10832 5293 c-36 -17 -51 -55 -32 -78 7 -8 28 -18 48 -21 20 -4 82
-31 137 -60 285 -151 580 -232 925 -255 85 -5 174 -14 198 -20 74 -17 101 16
67 81 -19 38 -59 49 -85 25 -18 -16 -35 -17 -167 -12 -309 12 -564 78 -861
224 -97 47 -136 71 -142 88 -5 13 -18 29 -29 34 -24 13 -19 14 -59 -6z"/>
<path d="M11185 4879 c-13 -19 15 -43 99 -84 97 -48 197 -75 284 -75 92 0 130
41 50 54 -59 9 -308 72 -374 95 -30 10 -57 15 -59 10z"/>
<path d="M11257 4392 c-19 -21 -37 -66 -37 -93 0 -29 44 -69 76 -69 21 0 25 3
19 18 -4 9 -11 29 -15 45 -8 25 -3 54 15 100 6 13 2 17 -17 17 -14 0 -32 -8
-41 -18z"/>
<path d="M7327 3695 c-9 -20 -17 -37 -17 -40 0 -11 219 -87 305 -105 109 -23
356 -37 445 -26 l55 7 -3 42 -4 42 -130 -4 c-208 -5 -392 25 -550 90 -39 16
-74 29 -78 29 -3 0 -14 -16 -23 -35z"/>
<path d="M10420 3320 c-8 -5 -10 -10 -5 -10 6 0 17 5 25 10 8 5 11 10 5 10 -5
0 -17 -5 -25 -10z"/>
<path d="M10370 3300 c-8 -5 -10 -10 -5 -10 6 0 17 5 25 10 8 5 11 10 5 10 -5
0 -17 -5 -25 -10z"/>
<path d="M10480 3290 c-8 -5 -10 -10 -5 -10 6 0 17 5 25 10 8 5 11 10 5 10 -5
0 -17 -5 -25 -10z"/>
<path d="M10430 3270 c-8 -5 -10 -10 -5 -10 6 0 17 5 25 10 8 5 11 10 5 10 -5
0 -17 -5 -25 -10z"/>
<path d="M10480 3194 c-17 -15 -29 -28 -27 -30 3 -4 128 44 136 52 2 2 -14 4
-37 4 -29 0 -49 -7 -72 -26z"/>
<path d="M8610 2218 c-256 -184 -520 -446 -630 -623 -23 -37 -23 -38 -4 -52
49 -37 48 -37 116 55 145 196 323 369 551 532 l116 84 -23 30 c-12 17 -27 31
-32 33 -5 1 -47 -25 -94 -59z"/>
</g>
</svg>
